<svg xmlns:xlink="http://www.w3.org/1999/xlink" xmlns="http://www.w3.org/2000/svg" style="width: 24px; height: 24px; fill: var(--color-icon-high-emphasis);" width="24"  height="24" ><defs><symbol id="post" xmlns="http://www.w3.org/2000/svg" viewBox="0 0 24 24"><path fill-rule="evenodd" d="M23 7v10a3 3 0 01-3 3H4a3 3 0 01-3-3V7a3 3 0 013-3h16a3 3 0 013 3zm-2 0a1 1 0 00-1-1H4a1 1 0 00-1 1v10a1 1 0 001 1h16a1 1 0 001-1V7zm-1 .993l-8 4.828L4 8v2.223l7.47 4.625a1 1 0 001.06 0L20 10.223v-2.23z" clip-rule="evenodd"></path></symbol></defs><use xlink:href="#post" fill="#424750"></use></svg>