<svg xmlns:xlink="http://www.w3.org/1999/xlink" xmlns="http://www.w3.org/2000/svg" style="width: 24px; height: 24px; fill: var(--color-icon-primary);" width="24"  height="24" ><defs><symbol id="fileTransferUpload" xmlns="http://www.w3.org/2000/svg" viewBox="0 0 24 24"><path fill-rule="evenodd" d="M19.969 8.355C19.635 4.782 16.643 2 13 2a6.996 6.996 0 00-5.795 3.072A3.5 3.5 0 003.07 9.2 5.5 5.5 0 006.5 19H9v-2H6.5l-.192-.005a3.5 3.5 0 01-1.553-6.53 1 1 0 00.443-1.198l-.1-.234a1.5 1.5 0 012.05-1.887l.051.027.107.046a1 1 0 001.235-.485A5 5 0 0118 9l-.005.235.004.117a1 1 0 00.665.848A3.5 3.5 0 0117.5 17H15v2h2.5l.221-.004a5.5 5.5 0 002.473-10.291l-.207-.11-.018-.24zm-8.823.084l-5 5 1.415 1.415L11 11.413V21h2v-9.293l3.146 3.147 1.415-1.415-5-5-.095-.083a1 1 0 00-1.32.083z" clip-rule="evenodd"></path></symbol></defs><use xlink:href="#fileTransferUpload" fill="#EF4056"></use></svg>